<svg xmlns="http://www.w3.org/2000/svg" viewBox="0 0 50 28.86772"><defs><style>.cls-1{fill:#000020;}</style></defs><title>logo</title><g id="Layer_2" data-name="Layer 2"><g id="Layer_1-2" data-name="Layer 1"><path class="cls-1" d="M22.12759,7.41686c1.063-.71827,1.063-.71827,2.72065-.71827a7.74419,7.74419,0,0,1,7.73543,7.7351V25.51842a3.3493,3.3493,0,1,0,6.69859,0V14.43369A14.45,14.45,0,0,0,24.84824,0a9.26586,9.26586,0,0,0-6.47029,1.86632Z"/><path class="cls-1" d="M32.84533,7.41686c1.063-.71827,1.063-.71827,2.72065-.71827a7.74419,7.74419,0,0,1,7.73543,7.7351V25.51842a3.3493,3.3493,0,1,0,6.69859,0V14.43369A14.45,14.45,0,0,0,35.566,0a9.26587,9.26587,0,0,0-6.47029,1.86632Z"/><path class="cls-1" d="M14.43337,0a14.43388,14.43388,0,1,0,7.89868,26.50023,3.34,3.34,0,0,0,6.53534-.98181V14.43369A14.45,14.45,0,0,0,14.43337,0Zm0,22.16913a7.73527,7.73527,0,1,1,7.73543-7.73544A7.74391,7.74391,0,0,1,14.43337,22.16913Z"/></g></g></svg>