<?xml version="1.0" standalone="no"?>
<!DOCTYPE svg PUBLIC "-//W3C//DTD SVG 20010904//EN"
 "http://www.w3.org/TR/2001/REC-SVG-20010904/DTD/svg10.dtd">
<svg version="1.0" xmlns="http://www.w3.org/2000/svg"
 width="500.000000pt" height="500.000000pt" viewBox="0 0 500.000000 500.000000"
 preserveAspectRatio="xMidYMid meet">
<metadata>
Created by potrace 1.11, written by Peter Selinger 2001-2013
</metadata>
<g transform="translate(0.000000,500.000000) scale(0.100000,-0.100000)"
fill="#000000" stroke="none">
<path d="M2335 3544 c-78 -12 -207 -50 -256 -75 -9 -5 -41 0 -80 12 -35 11
-77 22 -94 25 -16 2 -54 8 -84 13 -57 9 -257 7 -305 -4 -188 -40 -290 -81
-426 -170 -243 -160 -412 -418 -465 -708 -13 -72 -14 -322 -1 -382 61 -281
203 -508 419 -671 330 -248 780 -281 1151 -86 l89 47 16 -25 c45 -71 109 -110
191 -117 110 -10 207 46 253 147 20 43 21 63 22 500 1 487 -5 571 -48 715 -25
81 -66 174 -108 241 l-22 36 24 -7 c198 -61 337 -192 399 -375 30 -90 32 -128
33 -605 0 -473 2 -495 51 -560 58 -76 174 -112 271 -85 63 18 138 87 162 148
16 43 18 87 17 502 0 250 -3 489 -7 530 -12 129 -49 255 -113 381 -19 38 -33
69 -32 69 2 0 25 -7 51 -15 160 -48 311 -198 367 -364 31 -92 33 -133 32 -591
0 -265 3 -454 10 -482 21 -99 108 -174 212 -185 78 -8 137 11 195 63 86 78 84
63 85 604 2 513 -3 583 -50 731 -156 495 -663 820 -1159 743 -99 -15 -105 -17
-185 -46 l-65 -23 -80 26 c-151 50 -319 65 -470 43z m-521 -534 c172 -35 343
-182 407 -350 58 -153 53 -310 -15 -455 -220 -466 -896 -427 -1062 62 -144
422 226 832 670 743z"/>
</g>
</svg>
