<svg id="Layer_1" data-name="Layer 1" xmlns="http://www.w3.org/2000/svg" viewBox="0 0 100 100"><title>logo</title><path d="M49.31,28.9c-4.29,0-6.07.37-9.66,2.79A5,5,0,0,0,45.25,40c1.59-1.08,1.59-1.08,4.06-1.08A11.56,11.56,0,0,1,60.86,50.45V67a5,5,0,0,0,10,0V50.45A21.58,21.58,0,0,0,49.31,28.9Z" style="fill:#ff06a6"/><path d="M65.31,28.9c-4.29,0-6.07.37-9.66,2.79A5,5,0,0,0,61.25,40c1.59-1.08,1.59-1.08,4.06-1.08A11.56,11.56,0,0,1,76.86,50.45V67a5,5,0,0,0,10,0V50.45A21.58,21.58,0,0,0,65.31,28.9Z" style="fill:#ff06a6"/><path d="M33.76,28.9a21.55,21.55,0,1,0,11.8,39.57A5,5,0,0,0,55.31,67V50.45A21.57,21.57,0,0,0,33.76,28.9Zm0,33.1A11.55,11.55,0,1,1,45.31,50.45,11.56,11.56,0,0,1,33.76,62Z" style="fill:#1aa1fc"/></svg>