<svg id="Layer_1" data-name="Layer 1" xmlns="http://www.w3.org/2000/svg" viewBox="0 0 100 100"><title>logo</title><rect width="100" height="100" style="fill:#494848"/><path d="M81.86,55.45a5,5,0,0,1-5-5A11.56,11.56,0,0,0,65.31,38.9c-2.47,0-2.47,0-4.06,1.08a5,5,0,0,1-5.6-8.29c3.59-2.42,5.37-2.79,9.66-2.79A21.58,21.58,0,0,1,86.86,50.45,5,5,0,0,1,81.86,55.45Z" style="fill:#ff06a6"/><path d="M81.86,55.45a5,5,0,0,1-5-5A11.56,11.56,0,0,0,65.31,38.9c-2.47,0-2.47,0-4.06,1.08a5,5,0,0,1-5.6-8.29c3.59-2.42,5.37-2.79,9.66-2.79A21.58,21.58,0,0,1,86.86,50.45,5,5,0,0,1,81.86,55.45Z" style="fill:none;stroke:#fff;stroke-miterlimit:10;stroke-width:0.4000000059604645px;stroke-dasharray:3.0597293376922607,3.0597293376922607"/><path d="M81.86,72a5,5,0,0,1-5-5V50.45a5,5,0,0,1,10,0V67A5,5,0,0,1,81.86,72Z" style="fill:#ff06a6"/><path d="M81.86,72a5,5,0,0,1-5-5V50.45a5,5,0,0,1,10,0V67A5,5,0,0,1,81.86,72Z" style="fill:none;stroke:#fff;stroke-miterlimit:10;stroke-width:0.4000000059604645px;stroke-dasharray:2.9302637577056885,2.9302637577056885"/><path d="M65.86,55.45a5,5,0,0,1-5-5A11.56,11.56,0,0,0,49.31,38.9c-2.47,0-2.47,0-4.06,1.08a5,5,0,0,1-5.6-8.29c3.59-2.42,5.37-2.79,9.66-2.79A21.58,21.58,0,0,1,70.86,50.45,5,5,0,0,1,65.86,55.45Z" style="fill:#ff06a6"/><path d="M65.86,55.45a5,5,0,0,1-5-5A11.56,11.56,0,0,0,49.31,38.9c-2.47,0-2.47,0-4.06,1.08a5,5,0,0,1-5.6-8.29c3.59-2.42,5.37-2.79,9.66-2.79A21.58,21.58,0,0,1,70.86,50.45,5,5,0,0,1,65.86,55.45Z" style="fill:none;stroke:#fff;stroke-miterlimit:10;stroke-width:0.4000000059604645px;stroke-dasharray:3.059729814529419,3.059729814529419"/><path d="M65.86,72a5,5,0,0,1-5-5V50.45a5,5,0,0,1,10,0V67A5,5,0,0,1,65.86,72Z" style="fill:#ff06a6"/><path d="M65.86,72a5,5,0,0,1-5-5V50.45a5,5,0,0,1,10,0V67A5,5,0,0,1,65.86,72Z" style="fill:none;stroke:#fff;stroke-miterlimit:10;stroke-width:0.4000000059604645px;stroke-dasharray:2.9302637577056885,2.9302637577056885"/><path d="M33.76,72A21.55,21.55,0,1,1,55.31,50.45,21.57,21.57,0,0,1,33.76,72Zm0-33.1A11.55,11.55,0,1,0,45.31,50.45,11.56,11.56,0,0,0,33.76,38.9Z" style="fill:#1aa1fc"/><path d="M33.76,72A21.55,21.55,0,1,1,55.31,50.45,21.57,21.57,0,0,1,33.76,72Z" style="fill:none;stroke:#fff;stroke-miterlimit:10;stroke-width:0.4000000059604645px;stroke-dasharray:2.941709041595459,2.941709041595459"/><path d="M33.76,38.9A11.55,11.55,0,1,0,45.31,50.45,11.56,11.56,0,0,0,33.76,38.9Z" style="fill:none;stroke:#fff;stroke-miterlimit:10;stroke-width:0.4000000059604645px;stroke-dasharray:3.0215871334075928,3.0215871334075928"/><line x1="50.31" y1="50.45" x2="50.31" y2="51.95" style="fill:none;stroke:#fff;stroke-miterlimit:10;stroke-width:0.4000000059604645px"/><line x1="50.31" y1="54.66" x2="50.31" y2="64.15" style="fill:none;stroke:#fff;stroke-miterlimit:10;stroke-width:0.4000000059604645px;stroke-dasharray:2.709523916244507,2.709523916244507"/><line x1="50.31" y1="65.5" x2="50.31" y2="67" style="fill:none;stroke:#fff;stroke-miterlimit:10;stroke-width:0.4000000059604645px"/><path d="M50.31,72a5,5,0,0,1-5-5V50.45a5,5,0,0,1,10,0V67A5,5,0,0,1,50.31,72Z" style="fill:#1aa1fc"/><path d="M50.31,72a5,5,0,0,1-5-5V50.45a5,5,0,0,1,10,0V67A5,5,0,0,1,50.31,72Z" style="fill:none;stroke:#fff;stroke-miterlimit:10;stroke-width:0.4000000059604645px;stroke-dasharray:2.9302637577056885,2.9302637577056885"/></svg>