<svg id="Layer_1" data-name="Layer 1" xmlns="http://www.w3.org/2000/svg" viewBox="0 0 100 100"><title>logo</title><path d="M65.86,55.45a5,5,0,0,1-5-5A11.56,11.56,0,0,0,49.31,38.9c-2.47,0-2.47,0-4.06,1.08a5,5,0,0,1-5.6-8.29c3.59-2.42,5.37-2.79,9.66-2.79A21.58,21.58,0,0,1,70.86,50.45,5,5,0,0,1,65.86,55.45Z" style="fill:#ff06a6"/><path d="M65.86,72a5,5,0,0,1-5-5V50.45a5,5,0,0,1,10,0V67A5,5,0,0,1,65.86,72Z" style="fill:#ff06a6"/><path d="M81.86,55.45a5,5,0,0,1-5-5A11.56,11.56,0,0,0,65.31,38.9c-2.47,0-2.47,0-4.06,1.08a5,5,0,0,1-5.6-8.29c3.59-2.42,5.37-2.79,9.66-2.79A21.58,21.58,0,0,1,86.86,50.45,5,5,0,0,1,81.86,55.45Z" style="fill:#ff06a6"/><path d="M81.86,72a5,5,0,0,1-5-5V50.45a5,5,0,0,1,10,0V67A5,5,0,0,1,81.86,72Z" style="fill:#ff06a6"/><path d="M33.76,72A21.55,21.55,0,1,1,55.31,50.45,21.57,21.57,0,0,1,33.76,72Zm0-33.1A11.55,11.55,0,1,0,45.31,50.45,11.56,11.56,0,0,0,33.76,38.9Z" style="fill:#1aa1fc"/><path d="M50.31,72a5,5,0,0,1-5-5V50.45a5,5,0,0,1,10,0V67A5,5,0,0,1,50.31,72Z" style="fill:#1aa1fc"/></svg>