<svg xmlns="http://www.w3.org/2000/svg" xmlns:xlink="http://www.w3.org/1999/xlink" viewBox="0 0 74.64 43.1"><defs><style>.cls-1{fill:#fff;}</style><symbol id="logo-white" data-name="logo-white" viewBox="0 0 74.64 43.09"><path class="cls-1" d="M37.09,0C32.81,0,31,.37,27.44,2.79A5,5,0,1,0,33,11.07C34.62,10,34.62,10,37.09,10A11.56,11.56,0,0,1,48.64,21.55V38.1a5,5,0,1,0,10,0V21.55A21.57,21.57,0,0,0,37.09,0Z"/><path class="cls-1" d="M53.09,0C48.81,0,47,.37,43.44,2.79A5,5,0,1,0,49,11.07C50.62,10,50.62,10,53.09,10A11.56,11.56,0,0,1,64.64,21.55V38.1a5,5,0,1,0,10,0V21.55A21.57,21.57,0,0,0,53.09,0Z"/><path class="cls-1" d="M21.55,0A21.55,21.55,0,1,0,33.34,39.56a5,5,0,0,0,9.75-1.46V21.55A21.57,21.57,0,0,0,21.55,0Zm0,33.1A11.55,11.55,0,1,1,33.09,21.55,11.57,11.57,0,0,1,21.55,33.1Z"/></symbol></defs><title>logo-white</title><g id="Layer_2" data-name="Layer 2"><g id="Layer_1-2" data-name="Layer 1"><use width="74.64" height="43.1" xlink:href="#logo-white"/></g></g></svg>