<?xml version="1.0" encoding="utf-8"?>
<!-- Generator: Adobe Illustrator 21.1.0, SVG Export Plug-In . SVG Version: 6.00 Build 0)  -->
<svg version="1.1" id="Layer_1" xmlns="http://www.w3.org/2000/svg" xmlns:xlink="http://www.w3.org/1999/xlink" x="0px" y="0px"
	 viewBox="0 0 307.1 309.5" style="enable-background:new 0 0 307.1 309.5;" xml:space="preserve">
<style type="text/css">
	.st0{display:none;}
	.st1{fill:none;stroke:#000000;stroke-width:10;stroke-miterlimit:10;}
	.st2{fill:none;stroke:#000000;stroke-miterlimit:10;}
	.st3{fill:none;stroke:#000000;stroke-width:10;stroke-linecap:round;stroke-linejoin:round;stroke-miterlimit:10;}
	.st4{fill:none;stroke:#EC008C;stroke-width:10;stroke-linecap:round;stroke-linejoin:round;stroke-miterlimit:10;}
	.st5{fill:#FFFFFF;stroke:#000000;stroke-width:10;stroke-linecap:round;stroke-linejoin:round;stroke-miterlimit:10;}
	.st6{fill:#FFFFFF;stroke:#EC008C;stroke-width:10;stroke-linecap:round;stroke-linejoin:round;stroke-miterlimit:10;}
	.st7{fill:none;stroke:#000000;stroke-width:30;stroke-linecap:round;stroke-linejoin:round;stroke-miterlimit:10;}
	.st8{fill:#FFFFFF;stroke:#000000;stroke-width:30;stroke-linecap:round;stroke-linejoin:round;stroke-miterlimit:10;}
	.st9{fill:#FFFFFF;stroke:#EC008C;stroke-width:30;stroke-linecap:round;stroke-linejoin:round;stroke-miterlimit:10;}
	.st10{fill:none;stroke:#EC008C;stroke-width:30;stroke-linecap:round;stroke-linejoin:round;stroke-miterlimit:10;}
	.st11{fill:none;stroke:#000000;stroke-width:20;stroke-linecap:round;stroke-linejoin:round;stroke-miterlimit:10;}
	.st12{fill:#FFFFFF;stroke:#000000;stroke-width:20;stroke-linecap:round;stroke-linejoin:round;stroke-miterlimit:10;}
	.st13{fill:#FFFFFF;stroke:#EC008C;stroke-width:20;stroke-linecap:round;stroke-linejoin:round;stroke-miterlimit:10;}
	.st14{fill:none;stroke:#EC008C;stroke-width:20;stroke-linecap:round;stroke-linejoin:round;stroke-miterlimit:10;}
	.st15{fill:none;stroke:#EC008C;stroke-miterlimit:10;}
	.st16{stroke:#EC008C;stroke-width:30;stroke-linecap:round;stroke-linejoin:round;stroke-miterlimit:10;}
	.st17{stroke:#FFFFFF;stroke-width:30;stroke-linecap:round;stroke-linejoin:round;stroke-miterlimit:10;}
	.st18{stroke:#EC008C;stroke-width:20;stroke-linecap:round;stroke-linejoin:round;stroke-miterlimit:10;}
	.st19{stroke:#FFFFFF;stroke-width:20;stroke-linecap:round;stroke-linejoin:round;stroke-miterlimit:10;}
	.st20{stroke:#EC008C;stroke-width:30;stroke-linejoin:bevel;stroke-miterlimit:10;}
	.st21{stroke:#FFFFFF;stroke-width:30;stroke-linejoin:bevel;stroke-miterlimit:10;}
	.st22{stroke:#EC008C;stroke-width:20;stroke-linejoin:bevel;stroke-miterlimit:10;}
	.st23{stroke:#FFFFFF;stroke-width:20;stroke-linejoin:bevel;stroke-miterlimit:10;}
	.st24{fill:#ED1C53;}
	.st25{fill:#FFFFFF;}
</style>
<rect class="st0" width="309.5" height="309.5"/>
<g>
	<g>
		<polygon class="st24" points="135.9,154.8 135.9,154.8 171.6,154.8 171.6,154.8 		"/>
		<path class="st24" d="M219.5,71.1c-11.7,0-22.8,2.4-32.9,6.8c14.4,6.2,26.7,16.3,35.6,29c25.2,1.4,45.3,22.3,45.3,47.9h35.7
			C303.1,108.7,265.6,71.1,219.5,71.1z"/>
	</g>
	<g>
		<rect x="201.7" y="154.8" class="st24" width="35.7" height="83"/>
		<rect x="267.5" y="154.8" class="st24" width="35.7" height="83"/>
	</g>
	<g>
		<g>
			<rect x="135.9" y="154.8" class="st25" width="35.7" height="83"/>
		</g>
		<path class="st25" d="M87.9,71.1c-46.1,0-83.6,37.5-83.6,83.6s37.5,83.6,83.6,83.6c11.7,0,22.8-2.4,32.9-6.8v-42
			c-8.6,8.1-20.2,13.1-32.9,13.1c-26.4,0-48-21.5-48-48s21.5-48,48-48s48,21.5,48,48l0,0v68.4c21.5-15.1,35.7-40.2,35.7-68.4
			C171.6,108.7,134.1,71.1,87.9,71.1z"/>
	</g>
	<path class="st24" d="M153.7,71.1c-11.7,0-22.8,2.4-32.9,6.8c14.4,6.2,26.7,16.3,35.6,29c25.2,1.4,45.3,22.3,45.3,47.9h35.7
		C237.4,108.7,199.8,71.1,153.7,71.1z"/>
</g>
</svg>
