<?xml version="1.0" encoding="utf-8"?>
<!-- Generator: Adobe Illustrator 21.1.0, SVG Export Plug-In . SVG Version: 6.00 Build 0)  -->
<svg version="1.1" id="Layer_1" xmlns="http://www.w3.org/2000/svg" xmlns:xlink="http://www.w3.org/1999/xlink" x="0px" y="0px"
	 viewBox="0 0 307.1 309.5" style="enable-background:new 0 0 307.1 309.5;" xml:space="preserve">
<style type="text/css">
	.st0{display:none;}
	.st1{fill:none;stroke:#000000;stroke-width:10;stroke-miterlimit:10;}
	.st2{fill:none;stroke:#000000;stroke-miterlimit:10;}
	.st3{fill:none;stroke:#000000;stroke-width:10;stroke-linecap:round;stroke-linejoin:round;stroke-miterlimit:10;}
	.st4{fill:none;stroke:#EC008C;stroke-width:10;stroke-linecap:round;stroke-linejoin:round;stroke-miterlimit:10;}
	.st5{fill:#FFFFFF;stroke:#000000;stroke-width:10;stroke-linecap:round;stroke-linejoin:round;stroke-miterlimit:10;}
	.st6{fill:#FFFFFF;stroke:#EC008C;stroke-width:10;stroke-linecap:round;stroke-linejoin:round;stroke-miterlimit:10;}
	.st7{fill:none;stroke:#000000;stroke-width:30;stroke-linecap:round;stroke-linejoin:round;stroke-miterlimit:10;}
	.st8{fill:#FFFFFF;stroke:#000000;stroke-width:30;stroke-linecap:round;stroke-linejoin:round;stroke-miterlimit:10;}
	.st9{fill:#FFFFFF;stroke:#EC008C;stroke-width:30;stroke-linecap:round;stroke-linejoin:round;stroke-miterlimit:10;}
	.st10{fill:none;stroke:#EC008C;stroke-width:30;stroke-linecap:round;stroke-linejoin:round;stroke-miterlimit:10;}
	.st11{fill:none;stroke:#000000;stroke-width:20;stroke-linecap:round;stroke-linejoin:round;stroke-miterlimit:10;}
	.st12{fill:#FFFFFF;stroke:#000000;stroke-width:20;stroke-linecap:round;stroke-linejoin:round;stroke-miterlimit:10;}
	.st13{fill:#FFFFFF;stroke:#EC008C;stroke-width:20;stroke-linecap:round;stroke-linejoin:round;stroke-miterlimit:10;}
	.st14{fill:none;stroke:#EC008C;stroke-width:20;stroke-linecap:round;stroke-linejoin:round;stroke-miterlimit:10;}
	.st15{fill:none;stroke:#EC008C;stroke-miterlimit:10;}
	.st16{stroke:#EC008C;stroke-width:30;stroke-linecap:round;stroke-linejoin:round;stroke-miterlimit:10;}
	.st17{stroke:#FFFFFF;stroke-width:30;stroke-linecap:round;stroke-linejoin:round;stroke-miterlimit:10;}
	.st18{stroke:#EC008C;stroke-width:20;stroke-linecap:round;stroke-linejoin:round;stroke-miterlimit:10;}
	.st19{stroke:#FFFFFF;stroke-width:20;stroke-linecap:round;stroke-linejoin:round;stroke-miterlimit:10;}
	.st20{stroke:#EC008C;stroke-width:30;stroke-linejoin:bevel;stroke-miterlimit:10;}
	.st21{stroke:#FFFFFF;stroke-width:30;stroke-linejoin:bevel;stroke-miterlimit:10;}
	.st22{stroke:#EC008C;stroke-width:20;stroke-linejoin:bevel;stroke-miterlimit:10;}
	.st23{stroke:#FFFFFF;stroke-width:20;stroke-linejoin:bevel;stroke-miterlimit:10;}
	.st24{fill:#ED1C53;}
	.st25{fill:#FFFFFF;}
</style>
<rect class="st0" width="309.5" height="309.5"/>
<g>
	<circle class="st1" cx="-1229.6" cy="-863" r="55.4"/>
	<line class="st1" x1="-1174.2" y1="-863" x2="-1174.2" y2="-807.6"/>
</g>
<g>
	<path class="st1" d="M-1229.6-863c0-30.6,24.8-55.4,55.4-55.4s55.4,24.8,55.4,55.4"/>
	<path class="st1" d="M-1174.2-863c0-30.6,24.8-55.4,55.4-55.4c30.6,0,55.4,24.8,55.4,55.4"/>
	<line class="st1" x1="-1174.2" y1="-863" x2="-1174.2" y2="-807.6"/>
	<line class="st1" x1="-1118.9" y1="-863" x2="-1118.9" y2="-807.6"/>
</g>
<line class="st1" x1="-1063.5" y1="-863" x2="-1063.5" y2="-807.6"/>
<g>
	<circle class="st1" cx="-1229.6" cy="-699.7" r="55.4"/>
	<line class="st1" x1="-1174.2" y1="-699.7" x2="-1174.2" y2="-644.4"/>
</g>
<g>
	<path class="st2" d="M-1229.6-699.7c0-30.6,24.8-55.4,55.4-55.4s55.4,24.8,55.4,55.4"/>
	<path class="st2" d="M-1174.2-699.7c0-30.6,24.8-55.4,55.4-55.4c30.6,0,55.4,24.8,55.4,55.4"/>
	<line class="st2" x1="-1174.2" y1="-699.7" x2="-1174.2" y2="-644.4"/>
	<line class="st2" x1="-1118.9" y1="-699.7" x2="-1118.9" y2="-644.4"/>
</g>
<line class="st2" x1="-1063.5" y1="-699.7" x2="-1063.5" y2="-644.4"/>
<g>
	<path class="st3" d="M-952.8-863c0-30.6,24.8-55.4,55.4-55.4c30.6,0,55.4,24.8,55.4,55.4"/>
	<path class="st3" d="M-897.4-863c0-30.6,24.8-55.4,55.4-55.4c30.6,0,55.4,24.8,55.4,55.4"/>
	<line class="st3" x1="-897.4" y1="-863" x2="-897.4" y2="-807.6"/>
	<line class="st3" x1="-842.1" y1="-863" x2="-842.1" y2="-807.6"/>
	<line class="st3" x1="-952.8" y1="-863" x2="-952.8" y2="-807.6"/>
	<line class="st3" x1="-786.7" y1="-863" x2="-786.7" y2="-807.6"/>
</g>
<g>
	<path class="st2" d="M-952.8-699.7c0-30.6,24.8-55.4,55.4-55.4c30.6,0,55.4,24.8,55.4,55.4"/>
	<path class="st2" d="M-897.4-699.7c0-30.6,24.8-55.4,55.4-55.4c30.6,0,55.4,24.8,55.4,55.4"/>
	<line class="st2" x1="-842.1" y1="-699.7" x2="-842.1" y2="-644.4"/>
	<line class="st2" x1="-786.7" y1="-699.7" x2="-786.7" y2="-644.4"/>
	<line class="st2" x1="-897.4" y1="-699.7" x2="-897.4" y2="-644.4"/>
</g>
<g>
	<circle class="st4" cx="-952.8" cy="-863" r="55.4"/>
	<line class="st4" x1="-897.4" y1="-863" x2="-897.4" y2="-807.6"/>
</g>
<g>
	<circle class="st1" cx="-1229.6" cy="-536.5" r="55.4"/>
	<line class="st1" x1="-1174.2" y1="-536.5" x2="-1174.2" y2="-481.1"/>
</g>
<g>
	<path class="st1" d="M-1229.6-536.5c0-30.6,24.8-55.4,55.4-55.4s55.4,24.8,55.4,55.4"/>
	<path class="st1" d="M-1174.2-536.5c0-30.6,24.8-55.4,55.4-55.4c30.6,0,55.4,24.8,55.4,55.4"/>
	<line class="st1" x1="-1174.2" y1="-536.5" x2="-1174.2" y2="-481.1"/>
	<line class="st1" x1="-1118.9" y1="-536.5" x2="-1118.9" y2="-481.1"/>
</g>
<line class="st1" x1="-1063.5" y1="-536.5" x2="-1063.5" y2="-481.1"/>
<g>
	<path class="st3" d="M-897.4-536.5c0-30.6,24.8-55.4,55.4-55.4c30.6,0,55.4,24.8,55.4,55.4"/>
	<path class="st5" d="M-952.8-536.5c0-30.6,24.8-55.4,55.4-55.4c30.6,0,55.4,24.8,55.4,55.4"/>
	<line class="st3" x1="-842.1" y1="-536.5" x2="-842.1" y2="-481.1"/>
	<line class="st3" x1="-786.7" y1="-536.5" x2="-786.7" y2="-481.1"/>
</g>
<g>
	<circle class="st6" cx="-952.8" cy="-536.5" r="55.4"/>
	<line class="st4" x1="-897.4" y1="-536.5" x2="-897.4" y2="-481.1"/>
</g>
<g>
	<path class="st7" d="M-897.4-361.5c0-30.6,24.8-55.4,55.4-55.4c30.6,0,55.4,24.8,55.4,55.4"/>
	<path class="st8" d="M-952.8-361.5c0-30.6,24.8-55.4,55.4-55.4c30.6,0,55.4,24.8,55.4,55.4"/>
	<line class="st7" x1="-842.1" y1="-361.5" x2="-842.1" y2="-306.1"/>
	<line class="st7" x1="-786.7" y1="-361.5" x2="-786.7" y2="-306.1"/>
</g>
<g>
	<circle class="st9" cx="-952.8" cy="-361.5" r="55.4"/>
	<line class="st10" x1="-897.4" y1="-361.5" x2="-897.4" y2="-306.1"/>
</g>
<g>
	<path class="st11" d="M-1174.2-361.5c0-30.6,24.8-55.4,55.4-55.4c30.6,0,55.4,24.8,55.4,55.4"/>
	<path class="st12" d="M-1229.6-361.5c0-30.6,24.8-55.4,55.4-55.4s55.4,24.8,55.4,55.4"/>
	<line class="st11" x1="-1118.9" y1="-361.5" x2="-1118.9" y2="-306.1"/>
	<line class="st11" x1="-1063.5" y1="-361.5" x2="-1063.5" y2="-306.1"/>
</g>
<g>
	<circle class="st13" cx="-1229.6" cy="-361.5" r="55.4"/>
	<line class="st14" x1="-1174.2" y1="-361.5" x2="-1174.2" y2="-306.1"/>
</g>
<g>
	<path class="st10" d="M-897.4-164.3c0-30.6,24.8-55.4,55.4-55.4c30.6,0,55.4,24.8,55.4,55.4"/>
	<path class="st9" d="M-952.8-164.3c0-30.6,24.8-55.4,55.4-55.4c30.6,0,55.4,24.8,55.4,55.4"/>
	<line class="st10" x1="-842.1" y1="-164.3" x2="-842.1" y2="-108.9"/>
	<line class="st10" x1="-786.7" y1="-164.3" x2="-786.7" y2="-108.9"/>
</g>
<g>
	<circle class="st8" cx="-952.8" cy="-164.3" r="55.4"/>
	<line class="st7" x1="-897.4" y1="-164.3" x2="-897.4" y2="-108.9"/>
</g>
<g>
	<path class="st14" d="M-1174.2-164.3c0-30.6,24.8-55.4,55.4-55.4c30.6,0,55.4,24.8,55.4,55.4"/>
	<path class="st13" d="M-1229.6-164.3c0-30.6,24.8-55.4,55.4-55.4s55.4,24.8,55.4,55.4"/>
	<line class="st14" x1="-1118.9" y1="-164.3" x2="-1118.9" y2="-108.9"/>
	<line class="st14" x1="-1063.5" y1="-164.3" x2="-1063.5" y2="-108.9"/>
</g>
<g>
	<circle class="st12" cx="-1229.6" cy="-164.3" r="55.4"/>
	<line class="st11" x1="-1174.2" y1="-164.3" x2="-1174.2" y2="-108.9"/>
</g>
<g>
	<path class="st10" d="M-897.4,20.8c0-30.6,24.8-55.4,55.4-55.4c30.6,0,55.4,24.8,55.4,55.4"/>
	<path class="st9" d="M-952.8,20.8c0-30.6,24.8-55.4,55.4-55.4c30.6,0,55.4,24.8,55.4,55.4"/>
	<line class="st10" x1="-842.1" y1="20.8" x2="-842.1" y2="76.2"/>
	<line class="st10" x1="-786.7" y1="20.8" x2="-786.7" y2="76.2"/>
</g>
<g>
	<circle class="st9" cx="-952.8" cy="20.8" r="55.4"/>
	<line class="st10" x1="-897.4" y1="20.8" x2="-897.4" y2="76.2"/>
</g>
<g>
	<path class="st11" d="M-1174.2,20.8c0-30.6,24.8-55.4,55.4-55.4c30.6,0,55.4,24.8,55.4,55.4"/>
	<path class="st12" d="M-1229.6,20.8c0-30.6,24.8-55.4,55.4-55.4s55.4,24.8,55.4,55.4"/>
	<line class="st11" x1="-1118.9" y1="20.8" x2="-1118.9" y2="76.2"/>
	<line class="st11" x1="-1063.5" y1="20.8" x2="-1063.5" y2="76.2"/>
</g>
<g>
	<circle class="st12" cx="-1229.6" cy="20.8" r="55.4"/>
	<line class="st11" x1="-1174.2" y1="20.8" x2="-1174.2" y2="76.2"/>
</g>
<g>
	<circle class="st15" cx="-952.8" cy="-699.7" r="55.4"/>
	<line class="st15" x1="-897.4" y1="-699.7" x2="-897.4" y2="-644.4"/>
</g>
<rect x="-734.3" y="-256.7" width="595.3" height="406.8"/>
<g>
	<path class="st16" d="M-298.3-164.3c0-30.6,24.8-55.4,55.4-55.4s55.4,24.8,55.4,55.4"/>
	<path class="st16" d="M-353.6-164.3c0-30.6,24.8-55.4,55.4-55.4s55.4,24.8,55.4,55.4"/>
	<line class="st16" x1="-242.9" y1="-164.3" x2="-242.9" y2="-108.9"/>
	<line class="st16" x1="-187.5" y1="-164.3" x2="-187.5" y2="-108.9"/>
</g>
<g>
	<circle class="st17" cx="-353.6" cy="-164.3" r="55.4"/>
	<line class="st17" x1="-298.3" y1="-164.3" x2="-298.3" y2="-108.9"/>
</g>
<g>
	<path class="st18" d="M-575-164.3c0-30.6,24.8-55.4,55.4-55.4s55.4,24.8,55.4,55.4"/>
	<path class="st18" d="M-630.4-164.3c0-30.6,24.8-55.4,55.4-55.4c30.6,0,55.4,24.8,55.4,55.4"/>
	<line class="st18" x1="-519.7" y1="-164.3" x2="-519.7" y2="-108.9"/>
	<line class="st18" x1="-464.3" y1="-164.3" x2="-464.3" y2="-108.9"/>
</g>
<g>
	<circle class="st19" cx="-630.4" cy="-164.3" r="55.4"/>
	<line class="st19" x1="-575" y1="-164.3" x2="-575" y2="-108.9"/>
</g>
<g>
	<path class="st16" d="M-298.3,20.8c0-30.6,24.8-55.4,55.4-55.4s55.4,24.8,55.4,55.4"/>
	<path class="st16" d="M-353.6,20.8c0-30.6,24.8-55.4,55.4-55.4s55.4,24.8,55.4,55.4"/>
	<line class="st16" x1="-242.9" y1="20.8" x2="-242.9" y2="76.2"/>
	<line class="st16" x1="-187.5" y1="20.8" x2="-187.5" y2="76.2"/>
</g>
<g>
	<circle class="st16" cx="-353.6" cy="20.8" r="55.4"/>
	<line class="st16" x1="-298.3" y1="20.8" x2="-298.3" y2="76.2"/>
</g>
<g>
	<path class="st19" d="M-575,20.8c0-30.6,24.8-55.4,55.4-55.4s55.4,24.8,55.4,55.4"/>
	<path class="st19" d="M-630.4,20.8c0-30.6,24.8-55.4,55.4-55.4c30.6,0,55.4,24.8,55.4,55.4"/>
	<line class="st19" x1="-519.7" y1="20.8" x2="-519.7" y2="76.2"/>
	<line class="st19" x1="-464.3" y1="20.8" x2="-464.3" y2="76.2"/>
</g>
<g>
	<circle class="st19" cx="-630.4" cy="20.8" r="55.4"/>
	<line class="st19" x1="-575" y1="20.8" x2="-575" y2="76.2"/>
</g>
<rect x="-734.3" y="150.6" width="595.3" height="406.8"/>
<g>
	<path class="st20" d="M-298.3,243c0-30.6,24.8-55.4,55.4-55.4s55.4,24.8,55.4,55.4"/>
	<path class="st20" d="M-353.6,243c0-30.6,24.8-55.4,55.4-55.4s55.4,24.8,55.4,55.4"/>
	<line class="st20" x1="-242.9" y1="243" x2="-242.9" y2="312.9"/>
	<line class="st20" x1="-187.5" y1="243" x2="-187.5" y2="312.9"/>
</g>
<g>
	<circle class="st21" cx="-353.6" cy="243" r="55.4"/>
	<line class="st21" x1="-298.3" y1="243" x2="-298.3" y2="312.9"/>
</g>
<g>
	<path class="st22" d="M-575,243c0-30.6,24.8-55.4,55.4-55.4s55.4,24.8,55.4,55.4"/>
	<path class="st22" d="M-630.4,243c0-30.6,24.8-55.4,55.4-55.4c30.6,0,55.4,24.8,55.4,55.4"/>
	<line class="st22" x1="-519.7" y1="243" x2="-519.7" y2="309.5"/>
	<line class="st22" x1="-464.3" y1="243" x2="-464.3" y2="309.5"/>
</g>
<g>
	<circle class="st23" cx="-630.4" cy="243" r="55.4"/>
	<line class="st23" x1="-575" y1="243" x2="-575" y2="309.5"/>
</g>
<g>
	<path class="st20" d="M-298.3,428.1c0-30.6,24.8-55.4,55.4-55.4s55.4,24.8,55.4,55.4"/>
	<path class="st20" d="M-353.6,428.1c0-30.6,24.8-55.4,55.4-55.4s55.4,24.8,55.4,55.4"/>
	<line class="st20" x1="-242.9" y1="428.1" x2="-242.9" y2="498"/>
	<line class="st20" x1="-187.5" y1="428.1" x2="-187.5" y2="498"/>
</g>
<g>
	<circle class="st20" cx="-353.6" cy="428.1" r="55.4"/>
	<line class="st20" x1="-298.3" y1="428.1" x2="-298.3" y2="498"/>
</g>
<g>
	<path class="st23" d="M-575,428.1c0-30.6,24.8-55.4,55.4-55.4s55.4,24.8,55.4,55.4"/>
	<path class="st23" d="M-630.4,428.1c0-30.6,24.8-55.4,55.4-55.4c30.6,0,55.4,24.8,55.4,55.4"/>
	<line class="st23" x1="-519.7" y1="428.1" x2="-519.7" y2="494"/>
	<line class="st23" x1="-464.3" y1="428.1" x2="-464.3" y2="494"/>
</g>
<g>
	<circle class="st23" cx="-630.4" cy="428.1" r="55.4"/>
	<line class="st23" x1="-575" y1="428.1" x2="-575" y2="494"/>
</g>
<g>
	<g>
		<polygon class="st24" points="135.9,154.8 135.9,154.8 171.6,154.8 171.6,154.8 		"/>
		<path class="st24" d="M219.5,71.1c-11.7,0-22.8,2.4-32.9,6.8c14.4,6.2,26.7,16.3,35.6,29c25.2,1.4,45.3,22.3,45.3,47.9h35.7
			C303.1,108.7,265.6,71.1,219.5,71.1z"/>
	</g>
	<g>
		<rect x="201.7" y="154.8" class="st24" width="35.7" height="83"/>
		<rect x="267.5" y="154.8" class="st24" width="35.7" height="83"/>
	</g>
	<g>
		<g>
			<rect x="135.9" y="154.8" class="st25" width="35.7" height="83"/>
		</g>
		<path class="st25" d="M87.9,71.1c-46.1,0-83.6,37.5-83.6,83.6s37.5,83.6,83.6,83.6c11.7,0,22.8-2.4,32.9-6.8v-42
			c-8.6,8.1-20.2,13.1-32.9,13.1c-26.4,0-48-21.5-48-48s21.5-48,48-48s48,21.5,48,48l0,0v68.4c21.5-15.1,35.7-40.2,35.7-68.4
			C171.6,108.7,134.1,71.1,87.9,71.1z"/>
	</g>
	<path class="st24" d="M153.7,71.1c-11.7,0-22.8,2.4-32.9,6.8c14.4,6.2,26.7,16.3,35.6,29c25.2,1.4,45.3,22.3,45.3,47.9h35.7
		C237.4,108.7,199.8,71.1,153.7,71.1z"/>
</g>
</svg>
